<svg width="26" height="21" viewBox="0 0 26 21" fill="none" xmlns="http://www.w3.org/2000/svg">
<rect width="26" height="21" fill="#DEEBFF"/>
<path d="M13.4541 9.1875L20.2222 11.3839V20.3438C20.2222 20.5178 20.1461 20.6847 20.0107 20.8078C19.8752 20.9309 19.6915 21 19.5 21H16.6111C16.4196 21 16.2359 20.9309 16.1004 20.8078C15.965 20.6847 15.8889 20.5178 15.8889 20.3438V15.75H8.66666V20.3438C8.66666 20.5178 8.59057 20.6847 8.45513 20.8078C8.31969 20.9309 8.13599 21 7.94444 21H5.05555C4.86401 21 4.68031 20.9309 4.54487 20.8078C4.40942 20.6847 4.33333 20.5178 4.33333 20.3438V11.5701C2.65597 11.0266 1.44444 9.58371 1.44444 7.875C1.44444 7.5269 1.59662 7.19306 1.86751 6.94692C2.1384 6.70078 2.5058 6.5625 2.88889 6.5625C3.27198 6.5625 3.63938 6.70078 3.91026 6.94692C4.18115 7.19306 4.33333 7.5269 4.33333 7.875C4.33405 8.2229 4.48646 8.55636 4.75719 8.80236C5.02792 9.04836 5.39491 9.18685 5.77778 9.1875H13.4541ZM24.5556 4.59375V5.90625C24.5556 6.60244 24.2512 7.27012 23.7094 7.7624C23.1676 8.25469 22.4328 8.53125 21.6667 8.53125H20.2222V9.99059L14.4444 8.11576V1.96875C14.4444 1.38427 15.2217 1.09142 15.6772 1.50486L16.9086 2.625H19.3294C19.8218 2.625 20.4014 2.94984 20.6212 3.35056L20.9444 3.9375H23.8333C24.0249 3.9375 24.2086 4.00664 24.344 4.12971C24.4795 4.25278 24.5556 4.4197 24.5556 4.59375ZM19.5 4.59375C19.5 4.46395 19.4576 4.33707 19.3783 4.22916C19.2989 4.12124 19.1861 4.03712 19.0542 3.98745C18.9222 3.93778 18.777 3.92479 18.6369 3.95011C18.4968 3.97543 18.3681 4.03793 18.2671 4.12971C18.1661 4.22149 18.0973 4.33842 18.0694 4.46572C18.0416 4.59302 18.0559 4.72497 18.1105 4.84488C18.1652 4.9648 18.2578 5.06729 18.3765 5.1394C18.4953 5.21151 18.6349 5.25 18.7778 5.25C18.9693 5.25 19.153 5.18086 19.2885 5.05779C19.4239 4.93472 19.5 4.7678 19.5 4.59375Z" fill="#0065FC"/>
</svg>
