<svg width="23" height="35" viewBox="0 0 23 35" fill="none" xmlns="http://www.w3.org/2000/svg">
<rect width="23" height="35" fill="#DEEBFF"/>
<path d="M7.18749 3.79688C7.18749 1.69989 9.11824 0 11.5 0C13.8818 0 15.8125 1.69989 15.8125 3.79688C15.8125 5.8938 13.8818 7.59375 11.5 7.59375C9.11824 7.59375 7.18749 5.8938 7.18749 3.79688ZM22.4386 3.86928C21.6902 3.21026 20.4765 3.21026 19.7281 3.86928L14.5394 8.4375H8.46052L3.27192 3.86928C2.52346 3.21026 1.30985 3.21026 0.561389 3.86928C-0.18713 4.5283 -0.18713 5.59675 0.561389 6.25577L6.22916 11.2458V25.3125C6.22916 26.2445 7.08729 27 8.14583 27H9.10416C10.1627 27 11.0208 26.2445 11.0208 25.3125V19.4062H11.9792V25.3125C11.9792 26.2445 12.8373 27 13.8958 27H14.8542C15.9127 27 16.7708 26.2445 16.7708 25.3125V11.2458L22.4386 6.25572C23.1871 5.5967 23.1871 4.5283 22.4386 3.86928V3.86928Z" fill="#0065FC"/>
</svg>
