<svg width="28" height="23" viewBox="0 0 28 23" fill="none" xmlns="http://www.w3.org/2000/svg">
<rect width="28" height="23" fill="#DEEBFF"/>
<g clip-path="url(#clip0)">
<path d="M27.2498 1.19257C25.5631 0.360362 23.8714 0.0395211 22.1784 0.0327135C16.804 0.0105954 11.4079 3.15211 6.03357 3.1305C4.68572 3.12508 3.34013 2.9208 1.99577 2.41821C1.84475 2.36179 1.69309 2.3348 1.54473 2.33421C0.793793 2.33119 0.132809 3.0043 0.126241 3.94233L0.0135451 20.0375C0.00905868 20.6782 0.320279 21.2868 0.825142 21.5354C2.51192 22.3681 4.20358 22.6889 5.89657 22.6957C11.271 22.7173 16.6675 19.5758 22.0419 19.5974C23.3897 19.6029 24.7353 19.8071 26.0797 20.3097C26.2307 20.3661 26.3823 20.3931 26.5307 20.3937C27.2816 20.3968 27.9426 19.7236 27.9492 18.7856L28.0619 2.69095C28.0659 2.0497 27.7547 1.44168 27.2498 1.19257V1.19257ZM2.21306 5.03692C3.08918 5.29613 4.00459 5.42817 4.9466 5.50096C4.67959 6.99093 3.54423 8.11011 2.19158 8.10467L2.21306 5.03692ZM2.11182 19.4955L2.1288 17.0715C3.62849 17.0775 4.83226 18.4659 4.8869 20.1976C3.90447 20.1018 2.98714 19.8699 2.11182 19.4955V19.4955ZM14.0034 16.2345C12.0752 16.2267 10.528 14.0395 10.5468 11.3502C10.5656 8.66039 12.1439 6.48622 14.0716 6.49397C15.9993 6.50172 17.547 8.68846 17.5282 11.3783C17.5094 14.0686 15.9307 16.2422 14.0034 16.2345ZM25.8619 17.6915C25.099 17.4657 24.3062 17.3378 23.4947 17.2538C23.7601 15.9318 24.711 14.9311 25.8824 14.7633L25.8619 17.6915ZM25.9458 5.71324C24.5993 5.50946 23.5626 4.19688 23.5325 2.58091C24.3843 2.69442 25.1923 2.90365 25.9632 3.23296L25.9458 5.71324Z" fill="#0065FC"/>
</g>
<defs>
<clipPath id="clip0">
<rect width="28" height="23" fill="white"/>
</clipPath>
</defs>
</svg>
